<svg xmlns="http://www.w3.org/2000/svg" viewBox="0 0 256 256"><defs><style>.cls-1{fill:#1d384d}</style></defs><g id="icons_without_caption" data-name="icons without caption"><g id="BIG_DATA" data-name="BIG DATA"><circle class="cls-1" cx="75.63" cy="189.26" r="4.17"/><circle class="cls-1" cx="89.75" cy="189.26" r="4.17"/><circle class="cls-1" cx="103.86" cy="189.26" r="4.17"/><path class="cls-1" d="M126.5 203.55v4H44.76v-32.59h4v28.59h77.74z"/><circle class="cls-1" cx="75.63" cy="189.26" r="4.17"/><circle class="cls-1" cx="89.75" cy="189.26" r="4.17"/><circle class="cls-1" cx="103.86" cy="189.26" r="4.17"/><circle class="cls-1" cx="75.63" cy="156.67" r="4.16"/><circle class="cls-1" cx="89.75" cy="156.67" r="4.16"/><circle class="cls-1" cx="103.86" cy="156.67" r="4.16"/><path class="cls-1" d="M118.67 170.96v4H44.76v-32.59h4v28.59h69.91z"/><circle class="cls-1" cx="75.63" cy="156.67" r="4.16"/><circle class="cls-1" cx="89.75" cy="156.67" r="4.16"/><circle class="cls-1" cx="103.86" cy="156.67" r="4.16"/><circle class="cls-1" cx="75.63" cy="124.08" r="4.16"/><ellipse class="cls-1" cx="89.75" cy="124.08" rx="4.17" ry="4.16"/><ellipse class="cls-1" cx="103.86" cy="124.08" rx="4.17" ry="4.16"/><path class="cls-1" d="M48.76 109.79v28.58h69.91v4H44.76v-36.58h73.91v4H48.76z"/><circle class="cls-1" cx="75.63" cy="124.08" r="4.16"/><ellipse class="cls-1" cx="89.75" cy="124.08" rx="4.17" ry="4.16"/><ellipse class="cls-1" cx="103.86" cy="124.08" rx="4.17" ry="4.16"/><path class="cls-1" d="M164.95 163a11.18 11.18 0 1 0 11.18 11.18A11.19 11.19 0 0 0 164.95 163zm0 18.36a7.18 7.18 0 1 1 7.18-7.18 7.19 7.19 0 0 1-7.18 7.19zM135.66 148.55a2.7 2.7 0 0 1 2.72-2.72h52.36a2.72 2.72 0 0 1 2.72 2.72 2.73 2.73 0 0 1-2.72 2.72h-52.36a2.72 2.72 0 0 1-2.72-2.72zM135.66 128.17a2.7 2.7 0 0 1 2.72-2.72h52.36a2.72 2.72 0 0 1 2.72 2.72 2.73 2.73 0 0 1-2.72 2.72h-52.36a2.72 2.72 0 0 1-2.72-2.72zM135.66 107.79a2.7 2.7 0 0 1 2.72-2.72h52.36a2.72 2.72 0 0 1 2.72 2.72 2.73 2.73 0 0 1-2.72 2.72h-52.36a2.72 2.72 0 0 1-2.72-2.72zM135.66 87.41a2.7 2.7 0 0 1 2.72-2.72h52.36a2.72 2.72 0 0 1 2.72 2.72 2.73 2.73 0 0 1-2.72 2.72h-52.36a2.72 2.72 0 0 1-2.72-2.72zM135.66 67a2.7 2.7 0 0 1 2.72-2.72h52.36a2.72 2.72 0 0 1 2.72 2.72 2.73 2.73 0 0 1-2.72 2.72h-52.36a2.72 2.72 0 0 1-2.72-2.72zM203.4 198.67v8.88h-76.9v-8.88h4v4.88h68.9v-4.88h4z"/><path class="cls-1" d="M193.46 87.41a2.73 2.73 0 0 1-2.72 2.72h-52.36a2.72 2.72 0 1 1 0-5.44h52.36a2.72 2.72 0 0 1 2.72 2.72zM193.46 67a2.73 2.73 0 0 1-2.72 2.72h-52.36a2.72 2.72 0 1 1 0-5.44h52.36a2.72 2.72 0 0 1 2.72 2.72zM193.46 107.79a2.73 2.73 0 0 1-2.72 2.72h-52.36a2.72 2.72 0 1 1 0-5.44h52.36a2.72 2.72 0 0 1 2.72 2.72zM193.46 128.17a2.73 2.73 0 0 1-2.72 2.72h-52.36a2.72 2.72 0 1 1 0-5.44h52.36a2.72 2.72 0 0 1 2.72 2.72zM193.46 148.55a2.73 2.73 0 0 1-2.72 2.72h-52.36a2.72 2.72 0 1 1 0-5.44h52.36a2.72 2.72 0 0 1 2.72 2.72z"/><path class="cls-1" d="M118.67 48.45v150.22h92.57V48.45zm88.57 146.22h-84.57V52.45h84.57z"/><path class="cls-1" d="M164.95 163a11.18 11.18 0 1 0 11.18 11.18A11.19 11.19 0 0 0 164.95 163zm0 18.36a7.18 7.18 0 1 1 7.18-7.18 7.19 7.19 0 0 1-7.18 7.19z"/></g></g></svg>